<svg xmlns="http://www.w3.org/2000/svg" width="410.349" height="49.209"><path d="M8.156 28.586L21.681 42.11l3.382-3.381-10.146-10.143 10.146-10.144-3.382-3.383zM396.156 28.586l-10.147-10.144 3.383-3.384 13.524 13.528-13.524 13.525-3.383-3.38z" fill="#FFF"/><g><path d="M35.809 5.973v35.516h19.079v-5.755H42.176V5.973zM67.783 37.009c4.078 0 6.572-1.838 6.572-5.099v-2.851c-.255.301-.714.561-1.274.765-1.171.402-1.938.507-4.383.765-3.566.403-5.349 1.524-5.349 3.306 0 1.992 1.629 3.114 4.434 3.114m.714-11.16c4.334-.406 5.858-.968 5.858-2.958 0-1.576-1.43-2.803-4.28-2.803-2.749 0-5.043 1.122-6.879 3.362l-3.767-3.209c2.493-3.517 6.014-5.245 10.543-5.245 6.372 0 10.346 3.056 10.346 8.302V41.952h-4.739v-2.909c-1.781 2.096-4.689 3.159-8.714 3.159-5.658 0-9.475-3.106-9.475-7.795-.001-5.249 3.51-7.893 11.107-8.558M103.375 34.254c1.477-1.478 2.193-3.362 2.193-5.606 0-2.24-.716-4.125-2.193-5.602-1.424-1.484-3.208-2.246-5.399-2.246s-4.078.762-5.607 2.246c-1.479 1.477-2.245 3.362-2.245 5.602 0 2.244.766 4.128 2.245 5.606 1.529 1.478 3.416 2.241 5.607 2.241 2.191.001 3.975-.762 5.399-2.241m-18.903 7.235V5.973h6.108v13.555c.871-2.496 3.98-4.281 8.21-4.281 3.617 0 6.675 1.278 9.123 3.877 2.494 2.543 3.72 5.703 3.72 9.524 0 3.827-1.225 6.982-3.72 9.583-2.447 2.544-5.506 3.823-9.123 3.823-4.23 0-7.338-1.792-8.21-4.282v3.716h-6.108zM134.049 34.408c1.533-1.579 2.297-3.469 2.297-5.76 0-2.294-.765-4.178-2.297-5.707-1.524-1.582-3.413-2.346-5.652-2.346-2.295 0-4.179.764-5.712 2.346-1.475 1.529-2.24 3.413-2.24 5.707 0 2.291.765 4.182 2.24 5.76 1.533 1.529 3.416 2.292 5.712 2.292 2.24 0 4.128-.763 5.652-2.292m-19.669-5.76c0-3.82 1.379-7.084 4.074-9.68 2.704-2.6 6.019-3.922 9.943-3.922 3.922 0 7.232 1.322 9.932 3.922 2.702 2.596 4.078 5.86 4.078 9.68 0 3.828-1.375 7.085-4.078 9.688-2.7 2.595-6.01 3.92-9.932 3.92-3.924 0-7.239-1.325-9.943-3.92-2.695-2.603-4.074-5.86-4.074-9.688M145.158 41.489V15.81h6.066v3.821c1.222-2.703 4.025-4.331 7.639-4.331.716 0 1.328.047 1.838.154v5.905a13.28 13.28 0 00-2.547-.252c-4.231 0-6.93 2.651-6.93 6.885V41.49h-6.066zM187.693 21.359V5.973h6.115v9.836h5.658v5.549h-5.658V32.83c0 2.801.971 3.822 3.207 3.822.77 0 1.477-.052 2.142-.203V41.9c-.864.202-1.934.301-3.158.301-5.555 0-8.306-2.901-8.306-8.712v-12.13zM221.759 34.408c1.529-1.579 2.297-3.469 2.297-5.76 0-2.294-.768-4.178-2.297-5.707-1.529-1.582-3.413-2.346-5.656-2.346-2.294 0-4.176.764-5.708 2.346-1.477 1.529-2.24 3.413-2.24 5.707 0 2.291.763 4.182 2.24 5.76 1.533 1.529 3.414 2.292 5.708 2.292 2.243 0 4.126-.763 5.656-2.292m-19.67-5.76c0-3.82 1.379-7.084 4.081-9.68 2.7-2.6 6.01-3.922 9.933-3.922 3.924 0 7.237 1.322 9.936 3.922 2.702 2.596 4.078 5.86 4.078 9.68 0 3.828-1.375 7.085-4.078 9.688-2.699 2.595-6.012 3.92-9.936 3.92-3.922 0-7.232-1.325-9.933-3.92-2.702-2.603-4.081-5.86-4.081-9.688M232.745 41.489V15.81h6.059v3.821c1.22-2.703 4.027-4.331 7.642-4.331.718 0 1.323.047 1.833.154v5.905a13.23 13.23 0 00-2.547-.252c-4.223 0-6.928 2.651-6.928 6.885V41.49h-6.059zM251.54 15.81h6.117v25.679h-6.117V15.81zm-.613-6.625c0-2.039 1.634-3.619 3.673-3.619a3.6 3.6 0 013.619 3.619 3.605 3.605 0 01-3.619 3.622c-2.039 0-3.673-1.588-3.673-3.622M171.384 37.009c4.078 0 6.574-1.838 6.574-5.099v-2.851c-.253.301-.718.561-1.274.765-1.171.402-1.932.507-4.376.765-3.577.403-5.357 1.524-5.357 3.306-.001 1.992 1.63 3.114 4.433 3.114m.714-11.16c4.333-.406 5.86-.968 5.86-2.958 0-1.576-1.43-2.803-4.278-2.803-2.751 0-5.047 1.122-6.878 3.362l-3.772-3.209c2.496-3.517 6.014-5.245 10.545-5.245 6.371 0 10.348 3.056 10.348 8.302V41.952h-4.741v-2.909c-1.784 2.096-4.683 3.159-8.712 3.159-5.654 0-9.477-3.106-9.477-7.795-.001-5.249 3.512-7.893 11.105-8.558M270.696 37.009c4.079 0 6.572-1.838 6.572-5.099v-2.851c-.251.301-.712.561-1.267.765-1.175.402-1.936.507-4.383.765-3.564.403-5.352 1.524-5.352 3.306 0 1.992 1.63 3.114 4.43 3.114m.718-11.16c4.331-.406 5.855-.968 5.855-2.958 0-1.576-1.426-2.803-4.277-2.803-2.749 0-5.045 1.122-6.878 3.362l-3.769-3.209c2.496-3.517 6.014-5.245 10.545-5.245 6.368 0 10.348 3.056 10.348 8.302V41.952h-4.743v-2.909c-1.782 2.096-4.687 3.159-8.711 3.159-5.654 0-9.484-3.106-9.484-7.795.001-5.249 3.522-7.893 11.114-8.558M318.282 17.631c-1.495-1.933-4.391-3.114-7.873-3.114-3.775 0-6.997 1.361-9.574 4.044-2.539 2.644-3.826 5.983-3.826 9.923 0 3.977 1.25 7.239 3.828 9.977 2.593 2.647 5.814 3.989 9.572 3.989 3.482 0 6.378-1.182 7.873-3.114v2.548h7.021V5.142h-7.021v12.489zm-7.049 18.365c-2.067 0-3.772-.701-5.209-2.138-1.357-1.406-2.045-3.214-2.045-5.375s.688-3.969 2.04-5.369c1.442-1.442 3.147-2.144 5.214-2.144 2.106 0 3.896.721 5.323 2.148 1.453 1.404 2.19 3.209 2.19 5.364s-.737 3.96-2.195 5.369c-1.423 1.424-3.212 2.145-5.318 2.145zM340.693 14.362c-4.062 0-7.454 1.305-10.084 3.883-2.611 2.61-3.935 6.055-3.935 10.238v.206c0 4.153 1.326 7.53 3.941 10.038 2.612 2.505 6.054 3.774 10.232 3.774 4.505 0 8.177-1.559 11.225-4.767l.286-.301-4.304-4.183-.292.293c-1.928 1.927-4.122 2.864-6.709 2.864-4.142 0-6.991-2.323-7.375-5.96h20.127l.03-.388c.055-.714.104-1.419.104-2.196 0-3.804-1.253-7.039-3.719-9.61-2.425-2.581-5.631-3.891-9.527-3.891zm0 6.094c1.679 0 3.087.522 4.314 1.601 1.079.906 1.679 1.99 1.789 3.225H333.86c.235-1.284.923-2.356 2.094-3.266 1.33-1.036 2.925-1.56 4.739-1.56zM367.359 41.923l13.52-26.84h-7.331l-7.258 14.913-7.258-14.913h-7.384l13.57 26.84z" fill="#FFF"/><g><path d="M292.206 34.819c1.906 0 3.554 1.597 3.554 3.503 0 2.009-1.648 3.554-3.554 3.554s-3.605-1.546-3.605-3.554c0-1.906 1.7-3.503 3.605-3.503z" fill="#FFF"/></g></g></svg>
